<svg width="234" height="261" fill="none" xmlns="http://www.w3.org/2000/svg"><path d="M233.396.028h-233c-.013 22.967-.04 82.121-.04 135 0 52.878 76.998 105.366 117.011 125 40.999-19.824 116.029-72.305 116.029-125v-135z" fill="#F4511E"/><path d="M140.192 65.775c2.636 8.435-1.098 18.452-3.295 22.406 8.963-10.017 19.878-11.998 24.383-11.203 35.606 5.801-10.626 30.753-30.313 34.267l-5.272 20.429c4.742-13.992 23.899-20.438 33.982-16.196 45.671 22.21-10.384 28.652-33.982 26.081-5.053 7.249-19.375 24.251-36.245 34.268-16.87 10.016-19.77-1.538-19.11-8.567l23.723-11.862c12.301-4.833 32.818-14.366 16.475-13.839-16.343.527-28.776-9.885-32.95-15.157-19.506-27.414 31.405-19.372 42.918 1.319 4.042-2.208 6.983-14-2.719-19.771-74.289-20.678-4.593-34.834 10.964-16.166 0-3.603-21.904-20.078-18.213-38.53 4.613-23.065 26.359 1.977 29.654 12.521z" fill="#fff"/></svg>